<?xml version="1.0" standalone="no"?>
<!DOCTYPE svg PUBLIC "-//W3C//DTD SVG 20010904//EN"
 "http://www.w3.org/TR/2001/REC-SVG-20010904/DTD/svg10.dtd">
<svg version="1.0" xmlns="http://www.w3.org/2000/svg"
 width="512.000000pt" height="512.000000pt" viewBox="0 0 512.000000 512.000000"
 preserveAspectRatio="xMidYMid meet">

<g transform="translate(0.000000,512.000000) scale(0.100000,-0.100000)"
fill="#000000" stroke="none">
<path d="M945 5105 c-212 -47 -392 -183 -484 -368 -83 -166 -76 31 -76 -2177
0 -2210 -7 -2010 77 -2180 51 -102 166 -223 268 -283 136 -79 307 -111 457
-88 103 17 186 51 308 126 218 134 2865 1801 2931 1846 265 178 375 509 270
811 -48 138 -141 258 -268 345 -66 46 -2696 1703 -2933 1848 -55 34 -124 71
-153 84 -114 48 -277 63 -397 36z"/>
</g>
</svg>
