<?xml version="1.0" standalone="no"?>
<!DOCTYPE svg PUBLIC "-//W3C//DTD SVG 20010904//EN"
 "http://www.w3.org/TR/2001/REC-SVG-20010904/DTD/svg10.dtd">
<svg version="1.0" xmlns="http://www.w3.org/2000/svg"
 width="300.000000pt" height="273.000000pt" viewBox="0 0 300.000000 273.000000"
 preserveAspectRatio="xMidYMid meet">
<metadata>
Created by potrace 1.10, written by Peter Selinger 2001-2011
</metadata>
<g transform="translate(0.000000,273.000000) scale(0.100000,-0.100000)"
fill="#000000" stroke="none">
<path d="M654 2174 c-40 -20 -135 -133 -206 -245 -201 -319 -239 -743 -99
-1099 59 -152 143 -284 251 -396 53 -55 76 -65 124 -52 40 10 65 35 72 74 9
47 -2 69 -63 136 -106 116 -184 259 -229 423 -32 113 -42 295 -24 416 25 173
108 363 212 487 26 31 61 75 78 96 50 65 35 132 -36 162 -41 17 -42 17 -80 -2z
m87 -55 c30 -30 19 -58 -54 -144 -179 -210 -266 -462 -254 -740 11 -249 91
-456 253 -648 74 -89 85 -116 55 -146 -36 -36 -67 -27 -126 34 -137 143 -245
355 -289 570 -74 359 38 772 279 1030 67 72 98 82 136 44z"/>
<path d="M2264 2175 c-57 -24 -80 -85 -52 -138 6 -12 33 -46 60 -76 64 -71
100 -123 147 -218 192 -386 131 -829 -159 -1158 -52 -58 -60 -73 -60 -107 0
-56 43 -98 99 -98 35 0 49 7 86 41 103 95 228 296 281 451 85 252 88 534 7
792 -50 162 -176 370 -284 472 -51 48 -82 58 -125 39z m106 -74 c134 -141 233
-320 287 -521 34 -127 44 -379 19 -512 -42 -224 -156 -454 -295 -596 -58 -59
-98 -69 -125 -30 -25 35 -20 52 40 125 154 185 232 357 264 578 14 97 12 184
-5 295 -31 207 -113 381 -262 558 -57 67 -62 85 -37 120 25 36 70 29 114 -17z"/>
<path d="M920 1864 c-77 -65 -156 -193 -202 -326 -28 -82 -32 -109 -36 -229
-4 -115 -1 -149 17 -220 37 -145 129 -311 216 -387 49 -44 104 -44 146 -3 44
45 41 98 -10 154 -218 238 -225 596 -16 835 47 54 55 69 55 103 0 88 -100 131
-170 73z m110 -34 c31 -31 25 -51 -38 -132 -202 -261 -201 -571 2 -837 31 -41
56 -83 56 -93 0 -24 -35 -58 -60 -58 -29 0 -103 72 -149 145 -88 138 -123 263
-122 430 2 207 73 391 202 524 44 46 78 52 109 21z"/>
<path d="M1939 1861 c-22 -23 -29 -39 -29 -69 0 -34 8 -50 50 -99 106 -124
154 -252 154 -413 0 -161 -48 -289 -154 -413 -42 -49 -50 -65 -50 -99 0 -86
101 -130 169 -73 49 42 121 145 162 231 129 273 100 590 -77 840 -64 90 -106
124 -155 124 -31 0 -47 -7 -70 -29z m152 -70 c62 -66 125 -179 159 -286 34
-109 39 -294 11 -405 -37 -143 -116 -289 -196 -358 -41 -37 -67 -40 -95 -12
-31 31 -24 55 40 139 103 135 144 252 144 411 0 157 -54 308 -148 418 -55 64
-64 93 -42 127 28 43 62 33 127 -34z"/>
<path d="M1385 1677 c-118 -40 -207 -117 -258 -225 -30 -62 -32 -75 -32 -172
0 -97 2 -110 32 -172 41 -86 109 -155 198 -199 66 -32 75 -34 175 -34 87 0
113 4 153 23 119 54 201 145 238 261 60 196 -29 400 -216 492 -60 29 -79 34
-159 36 -56 2 -106 -2 -131 -10z m268 -60 c78 -35 141 -97 180 -176 29 -60 32
-74 32 -161 0 -85 -3 -101 -29 -155 -38 -76 -111 -149 -184 -183 -49 -23 -70
-27 -152 -27 -82 0 -103 4 -152 27 -76 35 -138 94 -179 170 -33 60 -34 68 -34
168 0 96 3 110 28 158 52 98 129 165 230 198 65 22 192 12 260 -19z"/>
<path d="M1420 1510 c-72 -24 -134 -90 -156 -166 -38 -132 50 -273 190 -305
44 -9 62 -9 107 4 235 69 238 403 5 472 -63 19 -79 19 -146 -5z m186 -55 c61
-36 97 -101 97 -174 0 -117 -87 -204 -204 -204 -115 0 -204 89 -204 203 1 163
170 258 311 175z"/>
</g>
</svg>
